<svg width="20" height="19" viewBox="0 0 20 19" fill="none" xmlns="http://www.w3.org/2000/svg">
<path d="M6.90909 19L5.18182 16.1048L1.90909 15.381L2.22727 12.0333L0 9.5L2.22727 6.96667L1.90909 3.61905L5.18182 2.89524L6.90909 0L10 1.3119L13.0909 0L14.8182 2.89524L18.0909 3.61905L17.7727 6.96667L20 9.5L17.7727 12.0333L18.0909 15.381L14.8182 16.1048L13.0909 19L10 17.6881L6.90909 19ZM7.68182 16.6929L10 15.6976L12.3636 16.6929L13.6364 14.5214L16.1364 13.9333L15.9091 11.4L17.5909 9.5L15.9091 7.55476L16.1364 5.02143L13.6364 4.47857L12.3182 2.30714L10 3.30238L7.63636 2.30714L6.36364 4.47857L3.86364 5.02143L4.09091 7.55476L2.40909 9.5L4.09091 11.4L3.86364 13.9786L6.36364 14.5214L7.68182 16.6929ZM9.04545 12.7119L14.1818 7.6L12.9091 6.2881L9.04545 10.1333L7.09091 8.23333L5.81818 9.5L9.04545 12.7119Z" fill="#613EFF"/>
</svg>
