<svg width="168" height="30" viewBox="0 0 168 30" fill="none" xmlns="http://www.w3.org/2000/svg">
<path fill-rule="evenodd" clip-rule="evenodd" d="M20.7905 0.263672L21.037 0.270005C22.0914 0.324505 23.0497 0.729906 23.8601 1.45388L24.0596 1.6415L24.238 1.82657C24.9857 2.64122 25.4059 3.61898 25.4621 4.70186L25.4686 4.9536L25.4617 5.20269C25.4021 6.27532 24.9576 7.25894 24.1872 8.11088L24.0037 8.30513L17.6001 14.6427L24.5445 21.8413L24.6284 21.9254L24.7992 22.1085C25.5112 22.909 25.915 23.8558 25.9729 24.8993L25.9801 25.1622L25.9737 25.4131C25.9179 26.4926 25.5011 27.4712 24.7598 28.2939L24.5829 28.4809L24.3972 28.6596C23.5797 29.4086 22.6009 29.8267 21.5174 29.8826L21.2655 29.889L21.01 29.8821C19.8247 29.8179 18.7404 29.3058 17.8037 28.407L17.6052 28.2085L10.0138 20.358V24.9778L10.0076 25.2671C9.95342 26.5147 9.5453 27.5972 8.77531 28.444L8.60477 28.6218L8.41354 28.8007C7.56733 29.5483 6.49487 29.9413 5.25853 29.9936L4.97035 29.9997L4.68564 29.9936C3.46414 29.9406 2.4031 29.5431 1.56766 28.7901L1.3789 28.61L1.20028 28.4193C0.453335 27.575 0.0586383 26.5015 0.00606397 25.2658L0 24.9778V5.24865L0.00609368 4.96496C0.0589164 3.74737 0.455296 2.68452 1.20069 1.84344L1.3789 1.65331L1.56766 1.47322C2.4031 0.720223 3.46414 0.322722 4.68564 0.269778L4.97035 0.263672L5.25853 0.269707C6.49487 0.322043 7.56733 0.715092 8.41354 1.46268L8.60477 1.6415L8.78663 1.83168C9.54743 2.67332 9.95341 3.74055 10.0075 4.96366L10.0138 5.24865V9.32806L17.4513 1.76795C18.3223 0.855109 19.3727 0.335845 20.5389 0.270666L20.7905 0.263672Z" fill="#24AE80"/>
<path d="M51.959 0.269531C54.6499 0.329042 57.0377 0.835684 59.1113 1.7998L59.5225 1.99805L59.9092 2.20117C61.9436 3.3064 63.5613 4.82897 64.7373 6.75293L64.9521 7.11914L65.1543 7.48926C66.2013 9.48154 66.7505 11.7784 66.8115 14.3613L66.8174 14.8496L66.8115 15.3398C66.7514 17.94 66.2103 20.2503 65.1768 22.252L64.9766 22.624L64.7744 22.9736C63.6066 24.9221 61.9866 26.4565 59.9404 27.5576L59.5518 27.7588L59.1416 27.9551C57.0678 28.9074 54.6716 29.4071 51.9629 29.4658L51.417 29.4717H44.0273L43.749 29.4658C42.557 29.4176 41.5345 29.0555 40.7432 28.3506L40.5645 28.1816L40.3955 28.002C39.6901 27.2046 39.3267 26.1709 39.2783 24.9668L39.2725 24.6855V5.0498L39.2783 4.76855C39.3267 3.56444 39.69 2.53077 40.3955 1.7334L40.5645 1.55371L40.7432 1.38477C41.5345 0.679776 42.557 0.317772 43.749 0.269531L44.0273 0.263672H51.417L51.959 0.269531ZM48.7939 21.123H50.3994L50.7393 21.1182C52.5224 21.0701 53.8084 20.6389 54.6602 19.8701L54.8145 19.7227L54.9531 19.5732C55.7155 18.7021 56.1459 17.3491 56.1914 15.4531L56.1953 15.1133L56.1914 14.7734C56.146 12.8799 55.7168 11.5342 54.958 10.6748L54.8203 10.5283L54.666 10.3818C53.7607 9.57291 52.363 9.14062 50.3994 9.14062H48.7939V21.123Z" fill="#24AE80"/>
<path fill-rule="evenodd" clip-rule="evenodd" d="M32.3359 0.263672L32.6197 0.269809C33.8375 0.323016 34.895 0.722475 35.7256 1.47863L35.9132 1.65946L36.0896 1.84955C36.8271 2.6903 37.2186 3.75086 37.2707 4.96562L37.2768 5.24865V24.9778L37.2708 25.2652C37.2188 26.498 36.829 27.5692 36.09 28.4132L35.9132 28.6039L35.7256 28.7847C34.895 29.5408 33.8375 29.9403 32.6197 29.9935L32.3359 29.9997L32.0553 29.9935C30.8454 29.9393 29.7944 29.5314 28.9726 28.7622L28.8 28.5919L28.6268 28.4013C27.9029 27.5581 27.5223 26.4914 27.4717 25.2639L27.4658 24.9778V5.24865L27.4717 4.9669C27.5265 3.66459 27.9656 2.53988 28.8 1.67147C29.7054 0.729192 30.9195 0.263672 32.3359 0.263672Z" fill="#24AE80"/>
<path fill-rule="evenodd" clip-rule="evenodd" d="M79.7635 0L80.286 0.00533068C81.8203 0.0369344 83.2295 0.209192 84.5138 0.52554L84.9895 0.650932L85.4606 0.792149C86.7062 1.18902 87.8666 1.74811 88.9372 2.46769L89.3345 2.74504L89.5666 2.92125C90.0167 3.27993 90.3805 3.67652 90.6486 4.11834L90.7747 4.34306L90.8853 4.57658C91.0909 5.05167 91.2031 5.57462 91.231 6.13873L91.238 6.42418L91.2309 6.69982C91.1839 7.61124 90.9022 8.44766 90.391 9.17204L90.2308 9.38595L90.0818 9.56425C89.4224 10.3133 88.5871 10.7538 87.6408 10.8129L87.4205 10.8197L87.1339 10.8116C86.8499 10.7954 86.5739 10.7546 86.3068 10.6884L86.0428 10.6137L85.8682 10.5532C85.6309 10.4646 85.3748 10.3443 85.0906 10.1914L84.8721 10.0705L84.1721 9.67304L83.5801 9.35541L83.3484 9.23961C83.0287 9.08971 82.6654 8.95787 82.2582 8.84561L81.9445 8.76511L81.6163 8.69447C81.1709 8.60871 80.6945 8.55675 80.1869 8.5394L79.8003 8.53288L79.5432 8.53704C78.8002 8.56161 78.2235 8.6942 77.802 8.91399L77.6513 9.00046L77.5556 9.06377C77.387 9.18179 77.3176 9.27279 77.295 9.38415L77.2867 9.45716L77.2886 9.48112L77.2947 9.5042L77.3122 9.53423L77.3381 9.5576L77.4371 9.61799L77.5478 9.67836C77.666 9.73981 77.8066 9.80436 77.9689 9.87096L78.1384 9.93821L78.2928 9.99535C78.7659 10.1642 79.414 10.3439 80.2369 10.5316L80.8869 10.6738L81.1792 10.7344L81.6708 10.8452C83.7723 11.3326 85.4971 11.9113 86.8545 12.5943L87.1612 12.7538L87.4752 12.9279C88.8036 13.6886 89.8224 14.5855 90.5098 15.6339L90.6747 15.8992L90.835 16.1861C91.399 17.2509 91.7007 18.4555 91.747 19.781L91.7534 20.1454L91.7468 20.5135C91.685 22.2204 91.1916 23.7757 90.2719 25.1437L90.0683 25.4339L89.8438 25.7285C88.847 26.9847 87.5364 27.9756 85.9339 28.6993L85.5589 28.8615L85.1603 29.0191C83.5498 29.6256 81.745 29.9482 79.7506 29.9942L79.2481 30L78.6236 29.9931C76.9694 29.9561 75.4037 29.771 73.9274 29.4362L73.378 29.3037L72.9355 29.1851C71.4944 28.7811 70.2435 28.2516 69.1852 27.5894L68.8395 27.3638L68.6725 27.2476L68.5374 27.1423L68.3135 26.9544C67.9526 26.6365 67.6537 26.2942 67.4219 25.923L67.2909 25.6968L67.1767 25.463C66.9649 24.9861 66.8515 24.4539 66.8234 23.8713L66.8164 23.5758L66.8226 23.3192C66.8679 22.3931 67.1595 21.5441 67.69 20.8122L67.8563 20.5962L68.0075 20.4201C68.6757 19.6802 69.5105 19.2453 70.4517 19.187L70.6707 19.1802L70.965 19.1895C71.2577 19.208 71.5455 19.2543 71.8271 19.3283L72.1065 19.4116L72.3212 19.4896C72.6123 19.6036 72.9232 19.7576 73.2609 19.9515L73.5192 20.1045L73.8922 20.305C74.5121 20.6246 75.1232 20.872 75.7257 21.0485L76.0863 21.1459L76.4147 21.2207C77.084 21.3606 77.8285 21.4417 78.648 21.4621L79.064 21.4671L79.3319 21.4643C80.291 21.4433 80.9948 21.3089 81.4332 21.0982L81.5462 21.0389L81.6305 20.9874C81.7309 20.9211 81.7847 20.8624 81.8117 20.7834L81.8273 20.7199L81.7276 20.6469L81.6143 20.5767L81.5208 20.5258C81.052 20.2851 80.1328 20.0021 78.8031 19.7102L78.512 19.6476L78.1001 19.5628L77.5949 19.4525C75.436 18.9675 73.6722 18.3967 72.2931 17.727L71.9817 17.5708L71.6601 17.3982C70.2918 16.6386 69.2523 15.7265 68.5679 14.6451L68.4163 14.3926L68.2601 14.1027C67.711 13.0257 67.4194 11.792 67.3747 10.4173L67.3686 10.0389L67.3754 9.67875C67.4387 8.00661 67.945 6.45792 68.8819 5.06638L69.0893 4.77061L69.3165 4.47092C70.402 3.09343 71.8372 2.01144 73.5985 1.22862C75.4467 0.407141 77.506 0 79.7635 0Z" fill="#24AE80"/>
<path fill-rule="evenodd" clip-rule="evenodd" d="M98.0132 0L98.3015 0.00610573C99.5447 0.0593185 100.622 0.460679 101.469 1.22303L101.647 1.39192L101.828 1.58312C102.585 2.42907 102.988 3.49975 103.041 4.72701L103.048 5.01298V20.8628H109.783L110.028 20.8665C112.775 20.9511 114.495 22.4679 114.594 25.0777L114.598 25.318L114.593 25.5772C114.545 26.774 114.159 27.7854 113.399 28.5205L113.231 28.6738L113.054 28.8155C112.278 29.4029 111.279 29.6902 110.085 29.7309L109.783 29.736H97.7946L97.5162 29.7303C96.3228 29.6812 95.2989 29.3122 94.5089 28.5965L94.3307 28.4251L94.1629 28.2433C93.4624 27.4367 93.1047 26.388 93.0572 25.1586L93.0518 24.8717V5.01298L93.0578 4.7283C93.1142 3.41257 93.5661 2.27712 94.4218 1.40379C95.3437 0.462938 96.575 0 98.0132 0Z" fill="#24AE80"/>
<path fill-rule="evenodd" clip-rule="evenodd" d="M162.983 0L163.235 0.00650304C164.318 0.0627934 165.307 0.48362 166.151 1.23386L166.343 1.41282L166.53 1.6036C167.312 2.4432 167.754 3.44916 167.813 4.56391L167.819 4.82306L167.812 5.08088C167.76 6.02089 167.423 6.90169 166.821 7.70036L166.65 7.91613L160.717 14.8895L166.873 22.1362L167.037 22.3445C167.617 23.1171 167.945 23.9868 167.996 24.9206L168.003 25.1769L167.996 25.436C167.937 26.5508 167.496 27.5568 166.713 28.3964L166.526 28.5872L166.335 28.7658C165.494 29.5146 164.517 29.9369 163.451 29.9935L163.203 30L162.959 29.9934C161.826 29.9324 160.813 29.4457 159.977 28.5898L159.801 28.4008L159.703 28.2873L154.647 22.1552L149.484 28.3107L149.306 28.5098C148.461 29.4116 147.435 29.9282 146.288 29.993L146.04 30L145.791 29.9933C144.719 29.9355 143.738 29.5034 142.897 28.7395L142.705 28.5573L142.52 28.3645C141.743 27.5166 141.306 26.5096 141.247 25.3981L141.24 25.1397L141.247 24.8819C141.299 23.9419 141.637 23.061 142.24 22.2607L142.411 22.0445L148.524 14.8866L142.583 7.90472L142.41 7.68811C141.799 6.88677 141.449 6.00829 141.394 5.07803L141.387 4.82306L141.394 4.56391C141.453 3.44916 141.894 2.4432 142.677 1.6036L142.863 1.41282L143.055 1.23386C143.9 0.48362 144.888 0.0627934 145.971 0.00650304L146.223 0L146.475 0.00693744C147.639 0.0716009 148.678 0.587101 149.536 1.50282L149.717 1.70516L154.654 7.62244L159.548 1.7228C160.437 0.605657 161.62 0 162.983 0Z" fill="#24AE80"/>
<path fill-rule="evenodd" clip-rule="evenodd" d="M128.266 0C136.354 0.131146 142.886 6.66435 143.016 14.7534L143.018 14.999L143.016 15.247C142.884 23.3357 136.352 29.8682 128.263 29.998L128.018 30L127.77 29.998C119.6 29.8655 113.018 23.2009 113.018 14.999C113.018 6.79699 119.6 0.13247 127.77 0H128.266Z" fill="#24AE80"/>
<path fill-rule="evenodd" clip-rule="evenodd" d="M127.86 7.50266L128.022 7.5L128.184 7.50266C129.259 7.53817 130.193 7.92877 130.988 8.67472L131.106 8.78928L131.221 8.90748C131.966 9.70245 132.357 10.6377 132.392 11.7127L132.395 11.875V13.75H132.707L132.793 13.7534C132.988 13.7692 133.16 13.8402 133.309 13.966L133.371 14.0233L133.428 14.0856C133.554 14.2343 133.625 14.4066 133.641 14.6022L133.645 14.6874V20.3126L133.641 20.3979C133.625 20.5937 133.554 20.7661 133.428 20.9145L133.371 20.9767L133.309 21.0341C133.16 21.1602 132.988 21.231 132.793 21.2467L132.707 21.25H123.337L123.252 21.2467C123.028 21.2287 122.835 21.1389 122.673 20.9767C122.511 20.8149 122.421 20.6217 122.403 20.3979L122.4 20.3126V14.6874L122.403 14.6022C122.419 14.4066 122.49 14.2343 122.616 14.0856L122.673 14.0233L122.735 13.966C122.884 13.8402 123.056 13.7692 123.252 13.7534L123.337 13.75H123.649V11.875L123.652 11.7127C123.687 10.6377 124.078 9.70245 124.823 8.90748L124.938 8.78928L125.056 8.67472C125.851 7.92877 126.785 7.53817 127.86 7.50266ZM128.16 9.37956L128.023 9.3763L127.887 9.37956C127.256 9.40997 126.713 9.65323 126.257 10.1089C125.801 10.5645 125.558 11.1082 125.528 11.7397L125.525 11.8764V13.7514H130.522V11.8764L130.52 11.7488C130.493 11.1586 130.281 10.6449 129.885 10.2079L129.79 10.1089L129.698 10.0206C129.262 9.62174 128.749 9.40794 128.16 9.37956Z" fill="white"/>
</svg>
